<svg width="255" height="110" viewBox="0 0 255 110" fill="none" xmlns="http://www.w3.org/2000/svg">
<path d="M3.15421 1.04191C2.62507 0.404491 1.67939 0.316711 1.04197 0.845848C0.404552 1.37499 0.316772 2.32067 0.845909 2.95809L3.15421 1.04191ZM246.012 94C241.594 94 238.012 97.5817 238.012 102C238.012 106.418 241.594 110 246.012 110C250.431 110 254.012 106.418 254.012 102C254.012 97.5817 250.431 94 246.012 94ZM85.0125 102L83.8583 102.958L84.3082 103.5H85.0125V102ZM0.845909 2.95809L83.8583 102.958L86.1666 101.042L3.15421 1.04191L0.845909 2.95809ZM85.0125 103.5L246.012 103.5V100.5L85.0125 100.5V103.5Z" fill="white"/>
</svg>
