<svg width="288" height="92" viewBox="0 0 288 92" fill="none" xmlns="http://www.w3.org/2000/svg">
<path d="M2 88.5C1.17157 88.5 0.5 89.1716 0.5 90C0.5 90.8284 1.17157 91.5 2 91.5V88.5ZM280 0C275.582 0 272 3.58172 272 8C272 12.4183 275.582 16 280 16C284.418 16 288 12.4183 288 8C288 3.58172 284.418 0 280 0ZM209.012 90V91.5H209.698L210.147 90.9818L209.012 90ZM2 91.5L209.012 91.5V88.5L2 88.5V91.5ZM210.147 90.9818L281.134 8.98177L278.866 7.01823L207.878 89.0182L210.147 90.9818Z" fill="#FF9904"/>
</svg>
