<svg width="105" height="244" viewBox="0 0 105 244" fill="none" xmlns="http://www.w3.org/2000/svg">
<path d="M0 236C0 231.582 3.58172 228 8 228C12.4183 228 16 231.582 16 236C16 240.418 12.4183 244 8 244C3.58172 244 0 240.418 0 236ZM101.5 2C101.5 1.17157 102.172 0.5 103 0.5C103.828 0.5 104.5 1.17157 104.5 2H101.5ZM103 208H104.5V208.573L104.118 209L103 208ZM77.9382 236L79.0559 237L78.6088 237.5H77.9382V236ZM101.5 208V2H104.5V208H101.5ZM76.8206 235L101.882 207L104.118 209L79.0559 237L76.8206 235ZM8 234.5H77.9382V237.5H8V234.5Z" fill="#FF9904"/>
</svg>
